<svg width="78" height="78" viewBox="0 0 78 78" fill="none" xmlns="http://www.w3.org/2000/svg">
<path fill-rule="evenodd" clip-rule="evenodd" d="M18.8641 32.288C17.3875 32.288 16.1793 31.0799 16.1793 29.6032V24.2337H10.8098C9.33315 24.2337 8.125 23.0255 8.125 21.5489C8.125 20.0723 9.33315 18.8641 10.8098 18.8641H16.1793V13.4945C16.1793 12.0179 17.3875 10.8098 18.8641 10.8098C20.3408 10.8098 21.5489 12.0179 21.5489 13.4945V18.8641H26.9185C28.3951 18.8641 29.6033 20.0723 29.6033 21.5489C29.6033 23.0255 28.3951 24.2337 26.9185 24.2337H21.5489V29.6032C21.5489 31.0799 20.3408 32.288 18.8641 32.288ZM42.9798 58.1806C35.5698 58.1806 29.5559 52.1667 29.5559 44.7567C29.5559 37.3467 35.5698 31.3328 42.9798 31.3328C50.3898 31.3328 56.4037 37.3467 56.4037 44.7567C56.4037 52.1667 50.3898 58.1806 42.9798 58.1806ZM42.9798 36.7024C40.1023 36.7024 37.4433 38.2375 36.0046 40.7295C34.5658 43.2216 34.5658 46.2919 36.0046 48.7839C37.4433 51.2759 40.1023 52.8111 42.9798 52.8111C45.8574 52.8111 48.5163 51.2759 49.9551 48.7839C51.3939 46.2919 51.3939 43.2216 49.9551 40.7295C48.5163 38.2375 45.8574 36.7024 42.9798 36.7024ZM48.704 24.2337L52.0401 27.866C53.057 28.9731 54.4914 29.6032 55.9947 29.6032H64.5054V61.8206H21.5489V40.4918C21.5489 39.009 20.3469 37.807 18.8641 37.807C17.3814 37.807 16.1793 39.009 16.1793 40.4918V61.8206C16.1793 64.7739 18.5957 67.1902 21.5489 67.1902H64.5054C67.4587 67.1902 69.875 64.7739 69.875 61.8206V29.6032C69.875 26.65 67.4587 24.2337 64.5054 24.2337H55.9947L52.6655 20.6092C51.6722 19.5084 50.2224 18.8641 48.7189 18.8641H37.6809C36.1982 18.8641 34.9961 20.0661 34.9961 21.5489C34.9961 23.0316 36.1982 24.2337 37.6809 24.2337H48.704Z" fill="#37474F"/>
</svg>
